<svg xmlns="http://www.w3.org/2000/svg" width="254.798" height="71.286" viewBox="0 0 254.798 71.286"><g transform="translate(-58.2 -50.4)"><g transform="translate(58.2 50.4)"><path d="M58.2,50.4V60.85H86.042a13.667,13.667,0,0,1,2,.143,4.431,4.431,0,0,1,1.36.5A2.644,2.644,0,0,1,90.694,63v.072L101,72.587V50.4Z" transform="translate(-58.2 -50.4)" fill="#233467"/><path d="M68.363,83.356V69.9H58.2V98.815H68.363Z" transform="translate(-58.2 -55.943)" fill="#233467"/><path d="M77.7,75.454H90.368a2.008,2.008,0,0,0,2.505-2.505v-.573a2.938,2.938,0,0,0-.5-2,2.786,2.786,0,0,0-2-.573H77.7Z" transform="translate(-63.743 -55.915)" fill="#233467"/><path d="M77.7,82.3v6.442H90.511a2.007,2.007,0,0,0,2.505-2.505V84.805a2.938,2.938,0,0,0-.5-2,2.819,2.819,0,0,0-2-.5Z" transform="translate(-63.743 -59.468)" fill="#233467"/><path d="M96.638,70.791v2a3.684,3.684,0,0,1-.859,2.648,5.108,5.108,0,0,1-2.934,1.217,4.9,4.9,0,0,1,2.934,1.36,4.707,4.707,0,0,1,.93,3.006v2.29a12.2,12.2,0,0,1-.072,1.789,5.361,5.361,0,0,1-.286,1.145,2.809,2.809,0,0,1-1.5,1.5,8.532,8.532,0,0,1-3.078.429H77.6V98.275h28.987V77.591L96.28,68A9.1,9.1,0,0,1,96.638,70.791Z" transform="translate(-63.715 -55.403)"/><path d="M90.336,77.1a4.529,4.529,0,0,0-2.934-1.36,5.341,5.341,0,0,0,2.934-1.217,3.571,3.571,0,0,0,.859-2.648v-2a8.271,8.271,0,0,0-.358-2.72v-.072a2.644,2.644,0,0,0-1.288-1.5,4.431,4.431,0,0,0-1.36-.5A17.492,17.492,0,0,0,86.113,65H58.2v3.507H68.363V81.963h0v15.46h3.722V87.331H86.256a8.532,8.532,0,0,0,3.078-.429,2.594,2.594,0,0,0,1.5-1.5,3,3,0,0,0,.286-1.145,12.2,12.2,0,0,0,.072-1.789v-2.29A4.779,4.779,0,0,0,90.336,77.1Zm-2.863,4.151a2.008,2.008,0,0,1-2.505,2.505H72.157V77.31H84.968a2.008,2.008,0,0,1,2.505,2.505Zm-.644-12.239a2.819,2.819,0,0,1,.5,2v.573a2.007,2.007,0,0,1-2.505,2.505H72.157V68.507H84.825A2.819,2.819,0,0,1,86.829,69.008Z" transform="translate(-58.2 -54.55)" fill="#fff"/></g><g transform="translate(103.649 61.708)"><g transform="translate(35.929 43.731)"><path d="M183.208,128.144c-1.288.143-1.5.358-2.219,1.431-.787,1.217-1.431,2.219-2.29,3.793a1.82,1.82,0,0,0-.286,1.145v2.362c0,1.5.143,1.646,1.861,1.789v.5h-5.44v-.5c1.646-.143,1.789-.215,1.789-1.789v-2.29a1.888,1.888,0,0,0-.358-1.074c-.573-1-1.288-2.219-2.29-3.936-.716-1.217-.93-1.431-2.076-1.5V127.5h4.509v.573c-1.288.143-1.217.429-.93,1,.787,1.36,1.646,2.863,2.434,4.151.644-1.145,1.646-2.934,2.147-4.008.358-.859.358-1-1.074-1.145V127.5h4.151v.644Z" transform="translate(-171.9 -127.357)" fill="#233467"/><path d="M189.923,132.7a3.941,3.941,0,0,1,4.008,3.936,4.119,4.119,0,0,1-4.08,4.294,3.976,3.976,0,0,1-4.151-3.936,4.267,4.267,0,0,1,4.223-4.294Zm-.286.573c-1.074,0-2,1.074-2,3.078,0,2.29,1,3.936,2.433,3.936,1.074,0,2-.716,2-3.221,0-2.147-.859-3.793-2.433-3.793Z" transform="translate(-175.823 -128.835)" fill="#233467"/><path d="M207.69,140.287a12.641,12.641,0,0,0-1.431.286c-.5.143-1,.286-1.36.358l-.143-.072v-1.288c-.429.286-.787.644-1.288.93a2.966,2.966,0,0,1-1.431.429c-1.288,0-2.29-.787-2.29-2.648v-3.435c0-1-.143-1.074-.644-1.145l-.5-.143v-.429a11.029,11.029,0,0,0,1.36-.143c.5-.072,1.074-.143,1.36-.215a24.649,24.649,0,0,0-.072,2.577v2.433c0,1.5.787,1.932,1.575,1.932a2.548,2.548,0,0,0,1.861-.787v-4.151c0-1-.143-1.074-.716-1.217l-.644-.143v-.429a15.144,15.144,0,0,0,1.718-.143c.573-.072,1-.143,1.288-.143v5.869c0,.93.143,1.074.859,1.074h.5Z" transform="translate(-179.49 -128.835)" fill="#233467"/><path d="M215.234,134.632c.573-1,1.36-1.932,2.219-1.932a1.034,1.034,0,0,1,1.074.93,1.079,1.079,0,0,1-.644,1,.424.424,0,0,1-.5-.072,1,1,0,0,0-.787-.358c-.429,0-1,.5-1.431,1.5v3.221c0,1.145.072,1.288,1.5,1.36v.5H212.3v-.5c1.074-.143,1.288-.215,1.288-1.36v-3.722c0-1.145-.072-1.217-1.145-1.36v-.429a12.734,12.734,0,0,0,2.72-.716l.072,1.932Z" transform="translate(-183.385 -128.835)" fill="#233467"/><path d="M232.436,139.778a1.418,1.418,0,0,1-.787.215c-1.217,0-1.861-.716-1.861-2.147v-5.153h-1.217l-.072-.215.5-.573h.787v-1.288l1.36-1.217.215.072v2.505h2a.446.446,0,0,1-.143.716h-1.932V137.2c0,1.431.644,1.718,1.074,1.718a2.134,2.134,0,0,0,1.074-.286l.143.5Z" transform="translate(-187.99 -127.897)" fill="#233467"/><path d="M239.735,134.632c.573-1,1.36-1.932,2.219-1.932a1.034,1.034,0,0,1,1.074.93,1.079,1.079,0,0,1-.644,1,.424.424,0,0,1-.5-.072,1,1,0,0,0-.787-.358c-.429,0-1,.5-1.431,1.5v3.221c0,1.145.072,1.288,1.5,1.36v.5H236.8v-.5c1.074-.143,1.288-.215,1.288-1.36v-3.722c0-1.145-.072-1.217-1.145-1.36v-.429a12.734,12.734,0,0,0,2.72-.716l.072,1.932Z" transform="translate(-190.349 -128.835)" fill="#233467"/><path d="M255.69,140.287a12.641,12.641,0,0,0-1.431.286c-.5.143-1,.286-1.36.358l-.143-.072v-1.288c-.429.286-.787.644-1.288.93a2.967,2.967,0,0,1-1.431.429c-1.288,0-2.29-.787-2.29-2.648v-3.435c0-1-.143-1.074-.644-1.145l-.5-.143v-.429a11.028,11.028,0,0,0,1.36-.143c.5-.072,1.074-.143,1.36-.215a24.649,24.649,0,0,0-.072,2.577v2.433c0,1.5.787,1.932,1.575,1.932a2.548,2.548,0,0,0,1.861-.787v-4.151c0-1-.143-1.074-.716-1.217l-.644-.143v-.429a15.144,15.144,0,0,0,1.718-.143c.573-.072,1-.143,1.288-.143v5.869c0,.93.143,1.074.859,1.074h.5v.644Z" transform="translate(-193.135 -128.835)" fill="#233467"/><path d="M265.252,135.062c-.358-1.074-1-1.789-1.861-1.789a1.149,1.149,0,0,0-1.145,1.217c0,.716.716,1.145,1.5,1.5,1.36.573,2.29,1.217,2.29,2.433,0,1.646-1.575,2.505-3.078,2.505a4,4,0,0,1-2.076-.573,7.925,7.925,0,0,1-.286-2.219l.5-.072c.358,1.217,1.145,2.29,2.219,2.29a1.206,1.206,0,0,0,1.217-1.217c0-.716-.5-1.145-1.431-1.575-1.074-.5-2.29-1.074-2.29-2.505a2.508,2.508,0,0,1,2.791-2.362,4.241,4.241,0,0,1,1.646.286,15.3,15.3,0,0,1,.429,1.932Z" transform="translate(-197.115 -128.835)" fill="#233467"/><path d="M273.336,139.778a1.418,1.418,0,0,1-.787.215c-1.217,0-1.861-.716-1.861-2.147v-5.153h-1.217l-.072-.215.5-.573h.787v-1.288l1.36-1.217.215.072v2.505h2a.446.446,0,0,1-.143.716h-1.932V137.2c0,1.431.644,1.718,1.074,1.718a2.134,2.134,0,0,0,1.074-.286l.143.5Z" transform="translate(-199.617 -127.897)" fill="#233467"/><path d="M289.294,138.6H285l.215-1h4.294Z" transform="translate(-204.051 -130.228)" fill="#233467"/><path d="M307.17,127.3a5.971,5.971,0,0,1,6.155,5.941,6.088,6.088,0,0,1-6.37,6.227,5.947,5.947,0,0,1-6.155-6.012,6.116,6.116,0,0,1,6.37-6.155Zm-.358.644c-2.076,0-4.008,1.646-4.008,5.082,0,3.292,1.932,5.8,4.581,5.8,2.076,0,3.936-1.646,3.936-5.082,0-3.793-2.076-5.8-4.509-5.8Z" transform="translate(-208.543 -127.3)" fill="#233467"/><path d="M329.39,140.287a12.639,12.639,0,0,0-1.431.286c-.5.143-1,.286-1.36.358l-.143-.072v-1.288c-.429.286-.787.644-1.288.93a2.966,2.966,0,0,1-1.431.429c-1.288,0-2.29-.787-2.29-2.648v-3.435c0-1-.143-1.074-.644-1.145l-.5-.143v-.429a11.029,11.029,0,0,0,1.36-.143c.5-.072,1.074-.143,1.36-.215a24.66,24.66,0,0,0-.072,2.577v2.433c0,1.5.787,1.932,1.575,1.932a2.548,2.548,0,0,0,1.861-.787v-4.151c0-1-.143-1.074-.716-1.217l-.644-.143v-.429a15.144,15.144,0,0,0,1.718-.143c.573-.072,1-.143,1.288-.143v5.869c0,.93.143,1.074.859,1.074h.5Z" transform="translate(-214.086 -128.835)" fill="#233467"/><path d="M336.935,134.632c.573-1,1.36-1.932,2.219-1.932a1.034,1.034,0,0,1,1.074.93,1.079,1.079,0,0,1-.644,1,.424.424,0,0,1-.5-.072,1,1,0,0,0-.787-.358c-.429,0-1,.5-1.431,1.5v3.221c0,1.145.072,1.288,1.5,1.36v.5H334v-.5c1.074-.143,1.288-.215,1.288-1.36v-3.722c0-1.145-.072-1.217-1.145-1.36v-.429a12.733,12.733,0,0,0,2.72-.716l.072,1.932Z" transform="translate(-217.981 -128.835)" fill="#233467"/><path d="M354.738,132.929a1.922,1.922,0,0,1,.93-.286,3.231,3.231,0,0,1,3.292,3.435c0,2.648-2.219,4.366-4.509,4.8a2.859,2.859,0,0,1-1.288-.286v2.362c0,1.288.143,1.431,1.575,1.575v.5H350.3v-.5c1.145-.143,1.36-.215,1.36-1.36v-8.159c0-1.145-.072-1.145-1.217-1.288v-.429a16.7,16.7,0,0,0,2.791-.787v1.431Zm-1.575,6.37a2.871,2.871,0,0,0,1.718.716c1.5,0,2.433-1.36,2.433-3.221,0-1.932-1.145-3.006-2.433-3.006a3.067,3.067,0,0,0-1.718.716Z" transform="translate(-222.615 -128.778)" fill="#233467"/><path d="M368.523,132.7a3.941,3.941,0,0,1,4.008,3.936,4.119,4.119,0,0,1-4.08,4.294,3.976,3.976,0,0,1-4.151-3.936,4.311,4.311,0,0,1,4.223-4.294Zm-.215.573c-1.074,0-2,1.074-2,3.078,0,2.29,1,3.936,2.433,3.936,1.074,0,2-.716,2-3.221,0-2.147-.859-3.793-2.433-3.793Z" transform="translate(-226.594 -128.835)" fill="#233467"/><path d="M389.268,133.5c-.93.143-1.074.358-1.431,1.288-.573,1.431-1.36,3.793-2.219,6.227h-.573c-.787-1.932-1.5-3.65-2.219-5.44-.716,1.789-1.431,3.579-2.147,5.44h-.573c-.644-2.147-1.36-4.223-2.147-6.37-.286-.93-.5-1.074-1.36-1.145V133h3.865v.5c-1.074.215-1.145.286-.93,1.074.429,1.288.859,2.72,1.288,4.008h.072c.716-1.646,1.36-3.507,2.076-5.439h.5c.716,1.789,1.431,3.65,2.219,5.511h.072c.358-1.145.859-2.72,1.217-4.008.215-.859.143-1-1.074-1.145V133H389.2v.5Z" transform="translate(-230.091 -128.92)" fill="#233467"/><path d="M401.356,139.142a4.1,4.1,0,0,1-3.078,1.789,3.593,3.593,0,0,1-3.579-3.793,4.529,4.529,0,0,1,1.145-3.078,3.846,3.846,0,0,1,2.72-1.36h0a2.829,2.829,0,0,1,2.791,2.72c0,.358-.072.5-.429.573s-2.577.215-4.724.286c.072,2.29,1.36,3.292,2.648,3.292a3.12,3.12,0,0,0,2.076-.859Zm-3.149-5.8c-.787,0-1.575.716-1.789,2.219,1,0,1.932,0,2.934-.072.286,0,.429-.143.429-.358a1.789,1.789,0,0,0-1.575-1.789Z" transform="translate(-235.236 -128.835)" fill="#233467"/><path d="M408.335,134.632c.573-1,1.36-1.932,2.219-1.932a1.034,1.034,0,0,1,1.074.93,1.079,1.079,0,0,1-.644,1,.424.424,0,0,1-.5-.072,1,1,0,0,0-.787-.358c-.429,0-1,.5-1.431,1.5v3.221c0,1.145.072,1.288,1.5,1.36v.5H405.4v-.5c1.074-.143,1.288-.215,1.288-1.36v-3.722c0-1.145-.072-1.217-1.145-1.36v-.429a12.734,12.734,0,0,0,2.72-.716l.072,1.932Z" transform="translate(-238.278 -128.835)" fill="#233467"/></g><g transform="translate(0)"><path d="M146.679,90.105c-.358,1.646-1.36,6.37-1.861,7.873H121.7V96.547c4.294-.286,4.724-.644,4.724-4.939V72.5c0-4.223-.358-4.581-4.509-4.8V66.2h13.6v1.5c-3.936.286-4.438.5-4.438,4.8V91.537c0,2.648.215,3.579,1.145,4.08a11.474,11.474,0,0,0,4.652.644c2.648,0,4.437-.286,5.583-1.575a14.075,14.075,0,0,0,2.72-4.867Z" transform="translate(-121.7 -66.2)" fill="#233467"/><path d="M176.774,102.6a3.961,3.961,0,0,1-2.577-1,4.436,4.436,0,0,1-1.217-2.076c-2,1.288-4.366,3.078-5.726,3.078A6.032,6.032,0,0,1,161.1,96.59c0-2.433,1.36-3.937,4.08-4.8,3.149-1,6.656-2.29,7.73-3.149v-.859c0-3.507-1.575-5.368-4.008-5.368a2.911,2.911,0,0,0-2.076.859,7.435,7.435,0,0,0-1.5,3.292,1.572,1.572,0,0,1-1.575,1.217,2.445,2.445,0,0,1-2.29-2.147c0-.716.644-1.36,1.575-2a22.723,22.723,0,0,1,7.587-3.435,6.773,6.773,0,0,1,4.151,1.217c1.861,1.575,2.362,3.579,2.362,6.155v8.8c0,2.147.859,2.934,1.789,2.934a4.222,4.222,0,0,0,1.789-.5l.5,1.288Zm-3.865-12.31c-1,.5-3.006,1.431-4.08,1.932-1.932.859-3.006,1.789-3.006,3.579a3.5,3.5,0,0,0,3.435,3.722,6.008,6.008,0,0,0,3.65-1.575V90.292Z" transform="translate(-132.9 -70.18)" fill="#233467"/><path d="M223.37,82.188c-2.505.429-2.934,1-4.008,3.579-1.5,3.865-3.722,10.378-6.084,16.963h-1.5c-2.076-5.225-4.151-10.092-6.155-14.887-1.932,4.867-3.936,9.734-5.869,14.887h-1.5c-1.789-5.8-3.722-11.523-5.8-17.392-.859-2.505-1.288-2.863-3.65-3.149V80.9h10.593v1.288c-3.006.5-3.221.787-2.505,3.006,1.074,3.579,2.362,7.372,3.579,10.879h.072c1.861-4.581,3.722-9.519,5.726-14.959H207.7c1.861,4.939,3.936,10.02,6.012,15.173h.072c1-3.078,2.433-7.444,3.292-10.879.644-2.362.286-2.72-2.863-3.149V80.972h9.09v1.217Z" transform="translate(-140.775 -70.379)" fill="#233467"/><path d="M261.02,82.16c-2.648.429-3.078.787-4.437,3.579-1.217,2.505-2.863,6.585-6.3,14.529a130.257,130.257,0,0,0-5.3,13.384,1.4,1.4,0,0,1-1.575,1.145c-1.431,0-3.006-1.217-3.006-2.505,0-.787.429-1.217,1.288-1.789a9.552,9.552,0,0,0,3.865-4.294,25.388,25.388,0,0,0,1.5-3.149,2.986,2.986,0,0,0-.072-2.219c-2.076-5.8-4.437-11.881-5.8-15.1-1.074-2.577-1.575-3.149-4.294-3.579V80.872h10.521l.072,1.288c-2.29.429-2.577.859-2,2.577L250,96.689c1.36-3.078,3.507-8.875,4.438-11.809.644-1.789.215-2.362-2.577-2.791V80.8h9.09v1.36Z" transform="translate(-154.448 -70.35)" fill="#233467"/><path d="M285.108,97.635c-3.221,4.08-6.8,4.939-8.374,4.939-6.155,0-9.734-4.939-9.734-10.378a12.386,12.386,0,0,1,3.149-8.374,10.435,10.435,0,0,1,7.515-3.722h0a7.783,7.783,0,0,1,7.658,7.515c0,.93-.286,1.36-1.145,1.575-.93.143-7.157.644-12.883.859.072,6.3,3.793,9.018,7.229,9.018a8.22,8.22,0,0,0,5.726-2.433Zm-8.589-15.746c-2.147,0-4.294,1.932-5.01,6.012,2.648,0,5.3,0,8.088-.072.859,0,1.145-.286,1.145-.93,0-2.648-1.646-5.01-4.223-5.01Z" transform="translate(-163.005 -70.151)" fill="#233467"/><path d="M304.373,85.268c1.646-2.648,3.65-5.3,6.012-5.3a2.82,2.82,0,0,1,3.006,2.505,2.889,2.889,0,0,1-1.718,2.648,1.287,1.287,0,0,1-1.36-.143,2.983,2.983,0,0,0-2.147-1c-1.288,0-2.791,1.431-3.865,4.08v8.732c0,3.221.215,3.507,4.08,3.793v1.288H296.5v-1.288c3.006-.286,3.435-.573,3.435-3.793V86.7c0-3.078-.286-3.292-3.078-3.722V81.9a36.531,36.531,0,0,0,7.372-2v5.44h.143Z" transform="translate(-171.391 -70.095)" fill="#233467"/><path d="M335.868,86.613c-1-2.863-2.72-4.938-5.153-4.938a3.048,3.048,0,0,0-3.078,3.221c0,2,1.861,3.149,4.08,4.08,3.793,1.5,6.37,3.292,6.37,6.728,0,4.581-4.223,6.871-8.3,6.871A10.538,10.538,0,0,1,324.059,101a25.881,25.881,0,0,1-.859-6.012l1.36-.215c.93,3.292,3.149,6.155,6.155,6.155a3.36,3.36,0,0,0,3.435-3.292c0-2-1.288-3.078-3.865-4.223-2.863-1.288-6.3-3.006-6.3-6.871,0-3.507,3.006-6.442,7.73-6.442a10.845,10.845,0,0,1,4.509.859,32.386,32.386,0,0,1,1.145,5.225Z" transform="translate(-178.981 -70.151)" fill="#233467"/><g transform="translate(171.559 9.591)"><path d="M369.846,84.138c-.787-2.29-.5-2.577,2.577-3.078V79.7H361.4v1.36c2.433.286,2.863.716,3.793,3.292,1.718,5.01,3.364,9.877,4.939,14.816l2.433-6.442C371.635,89.863,370.7,87,369.846,84.138Z" transform="translate(-361.4 -79.628)" fill="#233467"/><path d="M382.8,87.043l2.147-5.583.573-1.36h-1.932c-1.861,4.939-3.579,9.519-5.3,13.742l-3.221,8.446h0L375,102.5h1.789c1.932-5.368,4.008-10.378,6.012-15.46Z" transform="translate(-365.266 -79.742)" fill="#233467"/><path d="M395.229,79.672v1.36c3.292.429,3.65.859,3.006,3.292-.93,3.579-2.433,8.159-3.435,11.308h-.072c-1.646-4.008-3.292-8.231-4.867-12.167l1.074-2.863.286-.644h-1.932c-1.861,4.938-3.579,9.519-5.3,13.742l-3.221,8.446-.072.215h1.789c1.718-4.581,3.435-8.8,5.153-13.1l-.143.358c1.718,4.08,3.507,8.3,5.225,12.668h1.5c2.433-6.871,4.724-13.67,6.3-17.607,1.074-2.72,1.5-3.292,4.151-3.722V79.6h-9.448Z" transform="translate(-366.887 -79.6)" fill="#233467"/></g></g></g></g></svg>